# Blender v2.83.2 OBJ File: 'Titile.blend'
# www.blender.org
mtllib Title.mtl
o Cube
v 0.653730 -3.852588 -6.592268
v 0.653730 3.852588 -6.592268
v 0.653730 -3.852588 6.592268
v 0.653730 3.852588 6.592268
v -0.104702 -3.852588 -6.592268
v -0.104702 3.852588 -6.592268
v -0.104702 -3.852588 6.592268
v -0.104702 3.852588 6.592268
vt 0.995306 0.999768
vt 0.000232 0.000175
vt 0.995306 0.000175
vt 0.299887 0.500232
vt 0.599078 0.999768
vt 0.299887 0.999768
vt 0.599542 0.499768
vt 0.898733 0.000232
vt 0.898733 0.499768
vt 0.599542 0.500232
vt 0.898733 0.999768
vt 0.599542 0.999768
vt 0.299423 0.000232
vt 0.000232 0.499768
vt 0.299887 0.499768
vt 0.599078 0.000232
vt 0.599078 0.499768
vt 0.000232 0.999768
vt 0.599078 0.500232
vt 0.599542 0.000232
vt 0.898733 0.500232
vt 0.299423 0.499768
vt 0.299887 0.000232
vn 1.0000 0.0000 0.0000
vn 0.0000 0.0000 1.0000
vn -1.0000 0.0000 0.0000
vn 0.0000 0.0000 -1.0000
vn 0.0000 -1.0000 0.0000
vn 0.0000 1.0000 0.0000
usemtl Title
s off
f 2/1/1 3/2/1 1/3/1
f 4/4/2 7/5/2 3/6/2
f 8/7/3 5/8/3 7/9/3
f 6/10/4 1/11/4 5/12/4
f 7/13/5 1/14/5 3/2/5
f 4/15/6 6/16/6 8/17/6
f 2/1/1 4/18/1 3/2/1
f 4/4/2 8/19/2 7/5/2
f 8/7/3 6/20/3 5/8/3
f 6/10/4 2/21/4 1/11/4
f 7/13/5 5/22/5 1/14/5
f 4/15/6 2/23/6 6/16/6
