# Blender v2.90.0 OBJ File: 'waterBeam.blend'
# www.blender.org
mtllib waterBeam.mtl
o Sphere
v 0.035310 0.085672 0.000000
v 0.035310 -0.069310 0.046446
v 0.035310 -0.026474 0.075151
v 0.035310 0.026474 0.075151
v 0.035310 0.069310 0.046446
v 0.035310 -0.085672 0.000000
v 0.024944 -0.029122 0.058454
v 0.024944 0.029121 0.058454
v 0.035310 0.069351 0.046473
v 0.035310 0.026490 0.075196
v 0.035310 -0.026490 0.075196
v 0.035310 -0.069351 0.046473
v 0.024944 -0.029122 -0.058454
v 0.024944 0.029121 -0.058454
v 0.035310 -0.069310 -0.046446
v 0.035310 -0.026474 -0.075151
v 0.035310 0.026474 -0.075151
v 0.035310 0.069310 -0.046446
v 0.425119 0.000000 -0.000000
v 0.398944 0.020588 -0.000000
v 0.398944 -0.016656 0.011161
v 0.398944 -0.006362 0.018059
v 0.398944 0.006362 0.018059
v 0.398944 0.016656 0.011161
v 0.398944 -0.016656 -0.011161
v 0.398944 -0.006362 -0.018059
v 0.398944 0.006362 -0.018059
v 0.398944 0.016656 -0.011161
v 0.398944 -0.020587 -0.000000
v 0.192017 0.050864 0.000000
v 0.192017 0.041150 -0.027575
v 0.192017 -0.041150 0.027575
v 0.192017 0.015718 -0.044618
v 0.192017 -0.050864 0.000000
v 0.192017 0.041150 0.027575
v 0.192017 -0.015718 -0.044618
v 0.192017 -0.041150 -0.027575
v 0.192017 -0.015718 0.044618
v 0.192017 0.015718 0.044618
v 0.114331 0.064832 0.000000
v 0.114331 0.020034 -0.056871
v 0.114331 -0.020034 -0.056871
v 0.114331 -0.020034 0.056871
v 0.114331 0.052450 -0.035148
v 0.114331 -0.052450 0.035148
v 0.114331 -0.064832 0.000000
v 0.114331 0.052450 0.035148
v 0.114331 -0.052450 -0.035148
v 0.114331 0.020034 0.056871
v 0.337873 0.024559 -0.016457
v 0.337873 -0.024559 0.016457
v 0.337873 -0.030356 -0.000000
v 0.337873 0.024559 0.016457
v 0.337873 -0.024559 -0.016457
v 0.337873 0.009381 0.026629
v 0.337873 0.030356 -0.000000
v 0.337873 0.009381 -0.026629
v 0.337873 -0.009381 -0.026629
v 0.337873 -0.009381 0.026629
v 0.024944 -0.029122 0.058454
v 0.024944 0.029121 0.058454
v 0.024944 -0.029122 -0.058454
v 0.024944 0.029121 -0.058454
v 0.035310 -0.069351 -0.046473
v 0.035310 -0.026490 -0.075195
v 0.035310 0.026490 -0.075195
v 0.035310 0.069351 -0.046473
v 0.035310 -0.085722 0.000000
v 0.035310 0.085722 0.000000
v 0.024944 -0.029122 0.058454
v 0.024944 0.029121 0.058454
v 0.024944 -0.029122 -0.058454
v 0.024944 0.029121 -0.058454
v -0.002519 -0.054204 0.036323
v -0.002519 -0.020704 0.058772
v -0.002519 0.020704 0.058772
v -0.002519 0.054204 0.036323
v -0.002519 -0.067000 0.000000
v -0.007074 -0.054204 0.025684
v -0.009889 -0.020704 0.041558
v -0.009889 0.020704 0.041558
v -0.007074 0.054204 0.025684
v -0.007074 -0.054204 -0.025684
v -0.009889 -0.020704 -0.041558
v -0.009889 0.020704 -0.041558
v -0.007074 0.054204 -0.025684
v -0.002519 -0.054204 -0.036323
v -0.002519 -0.020704 -0.058772
v -0.002519 0.020704 -0.058772
v -0.002519 0.054204 -0.036323
v -0.002519 0.067000 0.000000
v -0.002519 -0.067000 0.000000
v -0.007074 -0.054204 0.025684
v -0.009889 -0.020704 0.041558
v -0.009889 0.020704 0.041558
v -0.007074 0.054204 0.025684
v -0.008961 -0.054204 0.000000
v -0.012941 -0.020704 0.000000
v -0.012941 0.020704 0.000000
v -0.008961 0.054204 0.000000
v -0.007074 -0.054204 -0.025684
v -0.009889 -0.020704 -0.041558
v -0.009889 0.020704 -0.041558
v -0.007074 0.054204 -0.025684
v -0.002519 0.067000 0.000000
vt 0.326350 0.477498
vt 0.438831 0.534918
vt 0.324888 0.523724
vt 0.324271 0.081257
vt 0.429633 0.017349
vt 0.438654 0.069548
vt 0.326350 0.175429
vt 0.438831 0.232849
vt 0.324888 0.221655
vt 0.430053 0.587005
vt 0.321905 0.566260
vt 0.430053 0.284936
vt 0.321905 0.264190
vt 0.325857 0.429625
vt 0.439878 0.480590
vt 0.324271 0.383326
vt 0.429633 0.319419
vt 0.438654 0.371618
vt 0.325857 0.127555
vt 0.440041 0.123982
vt 0.440041 0.426051
vt 0.439878 0.178520
vt 0.227646 0.832324
vt 0.142476 0.757173
vt 0.229200 0.771113
vt 0.141973 0.661320
vt 0.029940 0.671072
vt 0.074133 0.604391
vt 0.246625 0.713171
vt 0.105266 0.889111
vt 0.000252 0.842474
vt 0.087354 0.829539
vt 0.246348 0.891065
vt 0.142788 0.847765
vt 0.141973 0.942538
vt 0.024952 0.928150
vt 0.283095 0.942663
vt 0.168635 0.930768
vt 0.439878 0.480590
vt 0.439878 0.178520
vt 0.430053 0.587005
vt 0.430053 0.284936
vt 0.440041 0.426051
vt 0.438831 0.232849
vt 0.438654 0.371618
vt 0.438831 0.534918
vt 0.440041 0.123982
vt 0.438654 0.069548
vt 0.679756 0.169390
vt 0.851898 0.227107
vt 0.679933 0.234732
vt 0.679756 0.573566
vt 0.855719 0.532414
vt 0.851953 0.581170
vt 0.855719 0.128238
vt 0.851953 0.176994
vt 0.685460 0.510243
vt 0.863332 0.486250
vt 0.851897 0.631284
vt 0.679933 0.638909
vt 0.685592 0.298043
vt 0.863332 0.321951
vt 0.696761 0.357333
vt 0.685591 0.702219
vt 0.863332 0.726127
vt 0.696761 0.761509
vt 0.855695 0.275821
vt 0.685460 0.106066
vt 0.863332 0.082073
vt 0.855695 0.679998
vt 0.503091 0.648288
vt 0.510772 0.730287
vt 0.510811 0.077998
vt 0.696625 0.046774
vt 0.503091 0.244112
vt 0.510772 0.326110
vt 0.526956 0.808101
vt 0.526956 0.403925
vt 0.503153 0.564066
vt 0.510810 0.482174
vt 0.696625 0.450951
vt 0.503153 0.159890
vt 0.000252 0.127502
vt 0.000381 0.177347
vt 0.000252 0.429571
vt 0.000392 0.381004
vt 0.321097 0.340728
vt 0.000381 0.479416
vt 0.000836 0.225935
vt 0.001803 0.273267
vt 0.000836 0.528005
vt 0.001803 0.575336
vt 0.000392 0.078935
vt 0.321097 0.038659
vt 0.168414 0.673553
vt 0.283095 0.661525
vt 0.003052 0.751980
vt 0.087338 0.768345
vt 0.105547 0.711189
vt 0.119711 0.832915
vt 0.124009 0.705712
vt 0.124496 0.895385
vt 0.118221 0.764802
vt 0.259889 0.835814
vt 0.260096 0.767674
vt 0.265265 0.896919
vt 0.265401 0.707309
vt 0.363514 0.683905
vt 0.431165 0.750516
vt 0.363514 0.750516
vt 0.388489 0.629319
vt 0.428901 0.604391
vt 0.430300 0.629319
vt 0.388489 0.805101
vt 0.430300 0.805101
vt 0.431165 0.683905
vt 0.428901 0.830030
vt 0.431668 0.683905
vt 0.499319 0.750516
vt 0.431668 0.750516
vt 0.432533 0.629319
vt 0.433932 0.604391
vt 0.474343 0.629319
vt 0.474343 0.805101
vt 0.432533 0.805101
vt 0.499319 0.683905
vt 0.433932 0.830030
vt 0.068774 0.999660
vt 0.212710 0.999748
vt 0.526968 0.000252
vt 0.526968 0.404428
vt 0.001059 0.333684
vt 0.001059 0.031615
vt 0.212513 0.604391
vn -0.1426 -0.5510 0.8222
vn -0.1492 -0.9326 -0.3285
vn -0.1426 0.5510 -0.8222
vn -0.1492 -0.9326 0.3285
vn -0.1492 0.9326 -0.3285
vn -0.1390 0.0000 0.9903
vn -0.1492 0.9326 0.3285
vn -0.1426 -0.5510 -0.8222
vn -0.1426 0.5510 0.8222
vn -0.1390 0.0000 -0.9903
vn 0.3982 0.0000 0.9173
vn 0.4230 0.8547 -0.3011
vn 0.4072 -0.5084 0.7587
vn 0.4072 -0.5084 -0.7587
vn 0.4072 0.5084 0.7587
vn 0.4230 -0.8547 -0.3011
vn 0.4230 0.8547 0.3011
vn -0.5679 0.0000 0.8231
vn -0.5679 0.0000 -0.8231
vn -0.5958 -0.7575 0.2669
vn -0.5958 0.7575 -0.2669
vn -0.5781 0.4542 0.6779
vn -0.5781 0.4542 -0.6778
vn -0.5958 0.7575 0.2669
vn -0.5781 -0.4542 0.6779
vn -0.5781 -0.4542 -0.6779
vn -0.5958 -0.7575 -0.2669
vn -0.1558 0.0000 -0.9878
vn -0.1599 0.5495 0.8200
vn -0.1599 -0.5495 -0.8200
vn -0.1672 0.9299 0.3276
vn -0.1558 0.0000 0.9878
vn -0.1672 0.9299 -0.3276
vn -0.1672 -0.9299 0.3276
vn -0.1599 0.5495 -0.8200
vn -0.1672 -0.9299 -0.3276
vn -0.1599 -0.5495 0.8200
vn -0.2311 -0.5416 0.8082
vn -0.2414 -0.9153 -0.3224
vn -0.2311 0.5416 -0.8082
vn -0.2414 -0.9153 0.3224
vn -0.2414 0.9153 -0.3224
vn -0.2254 0.0000 0.9743
vn -0.2414 0.9153 0.3224
vn -0.2311 -0.5416 -0.8082
vn -0.2311 0.5416 0.8082
vn -0.2254 0.0000 -0.9743
vn -0.1224 0.0000 -0.9925
vn -0.1256 0.5523 0.8241
vn -0.1256 -0.5523 -0.8241
vn -0.1315 0.9350 0.3294
vn -0.1224 0.0000 0.9925
vn -0.1315 0.9350 -0.3294
vn -0.1315 -0.9350 0.3294
vn -0.1256 0.5523 -0.8241
vn -0.1315 -0.9350 -0.3294
vn -0.1256 -0.5523 0.8241
vn 0.4230 -0.8547 0.3011
vn 0.3982 0.0000 -0.9173
vn 0.4072 0.5084 -0.7587
vn 0.9193 0.0000 -0.3936
vn 0.6131 0.7451 -0.2625
vn 0.8889 -0.2550 -0.3805
vn 0.8889 0.2550 -0.3805
vn 0.6131 -0.7451 -0.2625
vn 0.9193 0.0000 0.3936
vn 0.6131 0.7451 0.2625
vn 0.8889 -0.2550 0.3805
vn 0.8889 0.2550 0.3805
vn 0.6131 -0.7451 0.2625
vn 0.9973 0.0000 -0.0733
vn 0.8913 0.4487 -0.0655
vn 0.9904 -0.1177 -0.0727
vn 0.9904 0.1177 -0.0727
vn 0.8913 -0.4487 -0.0655
vn 0.9973 0.0000 0.0733
vn 0.8913 0.4487 0.0655
vn 0.9904 -0.1177 0.0727
vn 0.9904 0.1177 0.0727
vn 0.8913 -0.4487 0.0655
usemtl Material.001
s off
f 57/1/1 28/2/1 50/3/1
f 53/4/2 20/5/2 24/6/2
f 59/7/3 21/8/3 51/9/3
f 50/3/4 20/10/4 56/11/4
f 51/9/5 29/12/5 52/13/5
f 58/14/6 27/15/6 57/1/6
f 54/16/7 29/17/7 25/18/7
f 55/19/8 24/6/8 23/20/8
f 58/14/9 25/18/9 26/21/9
f 55/19/10 22/22/10 59/7/10
f 88/23/11 66/24/11 89/25/11
f 78/26/12 12/27/12 68/28/12
f 66/24/13 90/29/13 89/25/13
f 77/30/14 10/31/14 76/32/14
f 87/33/15 65/34/15 88/23/15
f 91/35/16 9/36/16 77/30/16
f 78/37/17 64/38/17 87/33/17
f 27/15/18 26/21/18 19/39/18
f 22/22/19 23/20/19 19/40/19
f 20/10/20 28/2/20 19/41/20
f 29/12/21 21/8/21 19/42/21
f 26/21/22 25/18/22 19/43/22
f 21/8/23 22/22/23 19/44/23
f 25/18/24 29/17/24 19/45/24
f 28/2/25 27/15/25 19/46/25
f 23/20/26 24/6/26 19/47/26
f 24/6/27 20/5/27 19/48/27
f 49/49/28 38/50/28 43/51/28
f 42/52/29 37/53/29 36/54/29
f 49/49/30 35/55/30 39/56/30
f 48/57/31 34/58/31 37/53/31
f 42/52/32 33/59/32 41/60/32
f 45/61/33 34/62/33 46/63/33
f 44/64/34 30/65/34 40/66/34
f 43/51/35 32/67/35 45/61/35
f 47/68/36 30/69/36 35/55/36
f 41/60/37 31/70/37 44/64/37
f 17/71/38 44/64/38 18/72/38
f 5/73/39 40/74/39 47/68/39
f 3/75/40 45/61/40 2/76/40
f 18/72/41 40/66/41 1/77/41
f 2/76/42 46/63/42 6/78/42
f 16/79/43 41/60/43 17/71/43
f 15/80/44 46/81/44 48/57/44
f 4/82/45 47/68/45 49/49/45
f 16/79/46 48/57/46 42/52/46
f 4/82/47 43/51/47 3/75/47
f 39/83/48 59/7/48 38/84/48
f 36/85/49 54/16/49 58/14/49
f 39/83/50 53/4/50 55/19/50
f 37/86/51 52/87/51 54/16/51
f 36/85/52 57/1/52 33/88/52
f 32/89/53 52/13/53 34/90/53
f 31/91/54 56/11/54 30/92/54
f 38/84/55 51/9/55 32/89/55
f 35/93/56 56/94/56 53/4/56
f 33/88/57 50/3/57 31/91/57
f 67/95/58 91/96/58 90/29/58
f 76/32/59 11/97/59 75/98/59
f 11/97/60 74/99/60 75/98/60
f 75/98/61 81/100/61 76/32/61
f 74/99/62 78/26/62 79/101/62
f 77/30/63 81/100/63 82/102/63
f 74/99/64 80/103/64 75/98/64
f 91/35/65 77/30/65 82/102/65
f 84/104/66 89/25/66 85/105/66
f 83/106/67 78/37/67 87/33/67
f 85/105/68 90/29/68 86/107/68
f 84/104/69 87/33/69 88/23/69
f 91/96/70 86/107/70 90/29/70
f 94/108/71 99/109/71 95/110/71
f 93/111/72 92/112/72 97/113/72
f 96/114/73 99/109/73 100/115/73
f 93/111/74 98/116/74 94/108/74
f 105/117/75 96/114/75 100/115/75
f 98/118/76 103/119/76 99/120/76
f 97/121/77 92/122/77 101/123/77
f 99/120/78 104/124/78 100/125/78
f 98/118/79 101/123/79 102/126/79
f 105/127/80 100/125/80 104/124/80
f 57/1/1 27/15/1 28/2/1
f 53/4/2 56/94/2 20/5/2
f 59/7/3 22/22/3 21/8/3
f 50/3/4 28/2/4 20/10/4
f 51/9/5 21/8/5 29/12/5
f 58/14/6 26/21/6 27/15/6
f 54/16/7 52/87/7 29/17/7
f 55/19/8 53/4/8 24/6/8
f 58/14/9 54/16/9 25/18/9
f 55/19/10 23/20/10 22/22/10
f 88/23/11 65/34/11 66/24/11
f 78/26/12 74/99/12 12/27/12
f 66/24/13 67/95/13 90/29/13
f 77/30/14 9/36/14 10/31/14
f 87/33/15 64/38/15 65/34/15
f 91/35/16 69/128/16 9/36/16
f 78/37/17 68/129/17 64/38/17
f 49/49/28 39/56/28 38/50/28
f 42/52/29 48/57/29 37/53/29
f 49/49/30 47/68/30 35/55/30
f 48/57/31 46/81/31 34/58/31
f 42/52/32 36/54/32 33/59/32
f 45/61/33 32/67/33 34/62/33
f 44/64/34 31/70/34 30/65/34
f 43/51/35 38/50/35 32/67/35
f 47/68/36 40/74/36 30/69/36
f 41/60/37 33/59/37 31/70/37
f 17/71/38 41/60/38 44/64/38
f 5/73/39 1/130/39 40/74/39
f 3/75/40 43/51/40 45/61/40
f 18/72/41 44/64/41 40/66/41
f 2/76/42 45/61/42 46/63/42
f 16/79/43 42/52/43 41/60/43
f 15/80/44 6/131/44 46/81/44
f 4/82/45 5/73/45 47/68/45
f 16/79/46 15/80/46 48/57/46
f 4/82/47 49/49/47 43/51/47
f 39/83/48 55/19/48 59/7/48
f 36/85/49 37/86/49 54/16/49
f 39/83/50 35/93/50 53/4/50
f 37/86/51 34/132/51 52/87/51
f 36/85/52 58/14/52 57/1/52
f 32/89/53 51/9/53 52/13/53
f 31/91/54 50/3/54 56/11/54
f 38/84/55 59/7/55 51/9/55
f 35/93/56 30/133/56 56/94/56
f 33/88/57 57/1/57 50/3/57
f 67/95/58 69/134/58 91/96/58
f 76/32/59 10/31/59 11/97/59
f 11/97/60 12/27/60 74/99/60
f 75/98/61 80/103/61 81/100/61
f 77/30/63 76/32/63 81/100/63
f 74/99/64 79/101/64 80/103/64
f 84/104/66 88/23/66 89/25/66
f 85/105/68 89/25/68 90/29/68
f 84/104/69 83/106/69 87/33/69
f 94/108/71 98/116/71 99/109/71
f 96/114/73 95/110/73 99/109/73
f 93/111/74 97/113/74 98/116/74
f 98/118/76 102/126/76 103/119/76
f 99/120/78 103/119/78 104/124/78
f 98/118/79 97/121/79 101/123/79
l 7 60
l 62 13
l 8 61
l 14 63
l 63 73
l 60 70
l 72 62
l 9 5
l 71 61
